<svg xmlns="http://www.w3.org/2000/svg" viewBox="0 0 480 360" role="img" aria-labelledby="titulo-ilustracao"><title id="titulo-ilustracao">Ilustração de voluntários organizando doações em uma mesa</title><defs><linearGradient id="fundo" x1="0" y1="0" x2="1" y2="1"><stop offset="0" stop-color="#2e7d32" /><stop offset="1" stop-color="#1b5e20" /></linearGradient></defs><rect width="480" height="360" rx="24" fill="url(#fundo)" /><rect x="60" y="250" width="360" height="18" rx="6" fill="#f9a825" /><rect x="90" y="268" width="16" height="60" fill="#e69a1a" /><rect x="374" y="268" width="16" height="60" fill="#e69a1a" /><rect x="120" y="190" width="70" height="60" rx="6" fill="#ffffff" opacity="0.92" /><rect x="120" y="190" width="70" height="16" fill="#f9a825" /><rect x="205" y="170" width="80" height="80" rx="6" fill="#ffffff" opacity="0.92" /><rect x="205" y="170" width="80" height="16" fill="#f9a825" /><rect x="300" y="200" width="60" height="50" rx="6" fill="#ffffff" opacity="0.92" /><rect x="300" y="200" width="60" height="16" fill="#f9a825" /><circle cx="140" cy="140" r="26" fill="#ffe0b2" /><path d="M100 250 Q100 180 140 180 Q180 180 180 250 Z" fill="#ffffff" /><circle cx="240" cy="120" r="28" fill="#ffccbc" /><path d="M195 250 Q195 168 240 168 Q285 168 285 250 Z" fill="#f9a825" /><circle cx="340" cy="140" r="26" fill="#d7ccc8" /><path d="M300 250 Q300 180 340 180 Q380 180 380 250 Z" fill="#ffffff" /><circle cx="240" cy="70" r="30" fill="#ffffff" opacity="0.15" /><text x="240" y="82" font-size="34" text-anchor="middle">🤝</text></svg>